<svg id="Calque_1" data-name="Calque 1" xmlns="http://www.w3.org/2000/svg" viewBox="0 0 33.91 28.98"><defs><style>.cls-1{fill:#14bfdb;}.cls-2,.cls-3,.cls-4{fill:none;stroke-linecap:round;stroke-miterlimit:10;stroke-width:4px;}.cls-2{stroke:#29aced;}.cls-3{stroke:#8611ed;}.cls-4{stroke:#b80fef;}</style></defs><g id="Logo"><path class="cls-1" d="M6.8,23.35a2.78,2.78,0,0,1-4.4-.3A15.42,15.42,0,0,1,0,15.85,16.69,16.69,0,0,1,.5,10c.4-1.4,1.4-2.2,2.7-1.9a2.25,2.25,0,0,1,1.6,3,13.1,13.1,0,0,0,.1,6.8c2.9-3.8,5.6-7.3,8.3-10.9,1.5-2,3-4,4.5-5.9a2.53,2.53,0,0,1,3.5-.4,2,2,0,0,1,.6,3.1Z"/><line class="cls-2" x1="10.4" y1="25.55" x2="26.7" y2="4.65"/><line class="cls-3" x1="17.2" y1="26.85" x2="29.7" y2="11.05"/><line class="cls-4" x1="25.2" y1="26.45" x2="31.5" y2="18.05"/></g></svg>