<svg id="Calque_1" data-name="Calque 1" xmlns="http://www.w3.org/2000/svg" viewBox="0 0 154.1 53.4"><defs><style>.cls-1{isolation:isolate;}.cls-2{fill:#fff;}.cls-3{fill:#14bfdb;}.cls-4,.cls-5,.cls-6{fill:none;stroke-linecap:round;stroke-miterlimit:10;stroke-width:4px;}.cls-4{stroke:#29aced;}.cls-5{stroke:#8611ed;}.cls-6{stroke:#b80fef;}</style></defs><g class="cls-1"><path class="cls-2" d="M41.94,21.6A8.79,8.79,0,0,1,45.32,18a9.59,9.59,0,0,1,5-1.26,9.56,9.56,0,0,1,5.84,1.71,8.4,8.4,0,0,1,3.13,4.88H54.9A4.73,4.73,0,0,0,53.2,21a5,5,0,0,0-2.93-.82A4.82,4.82,0,0,0,46.33,22a7.62,7.62,0,0,0-1.47,5,7.71,7.71,0,0,0,1.47,5,4.81,4.81,0,0,0,3.94,1.8,4.49,4.49,0,0,0,4.63-3.13h4.34a8.83,8.83,0,0,1-3.18,4.8,9.24,9.24,0,0,1-5.79,1.78,9.5,9.5,0,0,1-5-1.27,9,9,0,0,1-3.38-3.6A11.48,11.48,0,0,1,40.72,27,11.44,11.44,0,0,1,41.94,21.6Z"/><path class="cls-2" d="M67.3,10.28V36.92h-4V10.28Z"/><path class="cls-2" d="M72.48,21.62A9,9,0,0,1,75.8,18a8.79,8.79,0,0,1,4.65-1.28,8.42,8.42,0,0,1,4,.92A8.26,8.26,0,0,1,87.2,20V17.08h4.06V36.92H87.2V34a8.24,8.24,0,0,1-2.8,2.34,8.92,8.92,0,0,1-8.62-.38,9.26,9.26,0,0,1-3.3-3.67,11.4,11.4,0,0,1-1.22-5.35A11.07,11.07,0,0,1,72.48,21.62Zm13.89,1.8a5.84,5.84,0,0,0-2.18-2.3,5.58,5.58,0,0,0-2.9-.8,5.65,5.65,0,0,0-2.89.78,5.75,5.75,0,0,0-2.18,2.27,7.18,7.18,0,0,0-.83,3.54,7.53,7.53,0,0,0,.83,3.6,6,6,0,0,0,2.19,2.36,5.62,5.62,0,0,0,5.78,0,5.9,5.9,0,0,0,2.18-2.32A7.46,7.46,0,0,0,87.2,27,7.34,7.34,0,0,0,86.37,23.42Z"/><path class="cls-2" d="M103.38,17.7a8.35,8.35,0,0,1,4-.94A8.78,8.78,0,0,1,112,18a8.89,8.89,0,0,1,3.31,3.58,11.3,11.3,0,0,1,1.2,5.29,11.64,11.64,0,0,1-1.2,5.35A9.14,9.14,0,0,1,112,35.93a8.54,8.54,0,0,1-4.64,1.31,8.32,8.32,0,0,1-4-.91A9,9,0,0,1,100.59,34V46.35h-4V17.08h4V20A8.13,8.13,0,0,1,103.38,17.7Zm8.22,5.67a5.77,5.77,0,0,0-5.11-3.05,5.64,5.64,0,0,0-2.88.8,5.79,5.79,0,0,0-2.19,2.3,7.34,7.34,0,0,0-.83,3.56,7.46,7.46,0,0,0,.83,3.59,5.85,5.85,0,0,0,2.19,2.32,5.66,5.66,0,0,0,5.8,0,6,6,0,0,0,2.19-2.36,7.53,7.53,0,0,0,.83-3.6A7.18,7.18,0,0,0,111.6,23.37Z"/><path class="cls-2" d="M138.23,28.53H123.35a5.54,5.54,0,0,0,1.73,3.82,5.42,5.42,0,0,0,3.82,1.44A4.69,4.69,0,0,0,133.49,31h4.35a8.93,8.93,0,0,1-3.2,4.48,9.28,9.28,0,0,1-5.74,1.74,9.81,9.81,0,0,1-5-1.27,9.11,9.11,0,0,1-3.47-3.6A11.26,11.26,0,0,1,119.18,27a11.44,11.44,0,0,1,1.22-5.38A8.65,8.65,0,0,1,123.83,18a10,10,0,0,1,5.07-1.26A9.83,9.83,0,0,1,133.81,18a8.62,8.62,0,0,1,3.36,3.44,10.56,10.56,0,0,1,1.2,5.1A13.58,13.58,0,0,1,138.23,28.53Zm-4.06-3.31a4.75,4.75,0,0,0-1.6-3.64,5.61,5.61,0,0,0-3.85-1.36,5.12,5.12,0,0,0-3.57,1.35,5.61,5.61,0,0,0-1.76,3.65Z"/><path class="cls-2" d="M148.71,17.61a6.8,6.8,0,0,1,3.48-.85V21h-1a4.85,4.85,0,0,0-3.58,1.22c-.82.82-1.22,2.23-1.22,4.25V36.92h-4V17.08h4V20A6.38,6.38,0,0,1,148.71,17.61Z"/></g><g id="Logo"><path class="cls-3" d="M6.8,33.5a2.78,2.78,0,0,1-4.4-.3A15.42,15.42,0,0,1,0,26a16.69,16.69,0,0,1,.5-5.9c.4-1.4,1.4-2.2,2.7-1.9a2.25,2.25,0,0,1,1.6,3A13.1,13.1,0,0,0,4.9,28c2.9-3.8,5.6-7.3,8.3-10.9,1.5-2,3-4,4.5-5.9a2.53,2.53,0,0,1,3.5-.4,2,2,0,0,1,.6,3.1Z"/><line class="cls-4" x1="10.4" y1="35.7" x2="26.7" y2="14.8"/><line class="cls-5" x1="17.2" y1="37" x2="29.7" y2="21.2"/><line class="cls-6" x1="25.2" y1="36.6" x2="31.5" y2="28.2"/></g></svg>