<?xml version="1.0" encoding="UTF-8" standalone="no"?>
<!DOCTYPE svg PUBLIC "-//W3C//DTD SVG 1.1//EN" "http://www.w3.org/Graphics/SVG/1.1/DTD/svg11.dtd">
<svg width="100%" height="100%" viewBox="0 0 155 54" version="1.1" xmlns="http://www.w3.org/2000/svg" xmlns:xlink="http://www.w3.org/1999/xlink" xml:space="preserve" xmlns:serif="http://www.serif.com/" style="fill-rule:evenodd;clip-rule:evenodd;stroke-linecap:round;">
    <g transform="matrix(0.98,0,0,1,39.42,36.92)">
        <g transform="matrix(36,0,0,36,0,0)">
            <path d="M0.037,-0.276C0.037,-0.333 0.049,-0.383 0.072,-0.426C0.094,-0.468 0.126,-0.502 0.167,-0.525C0.208,-0.548 0.254,-0.56 0.307,-0.56C0.374,-0.56 0.429,-0.544 0.473,-0.513C0.516,-0.481 0.546,-0.436 0.561,-0.377L0.438,-0.377C0.428,-0.404 0.412,-0.426 0.39,-0.441C0.368,-0.456 0.34,-0.464 0.307,-0.464C0.26,-0.464 0.223,-0.448 0.196,-0.415C0.168,-0.382 0.154,-0.335 0.154,-0.276C0.154,-0.217 0.168,-0.17 0.196,-0.137C0.223,-0.104 0.26,-0.087 0.307,-0.087C0.373,-0.087 0.417,-0.116 0.438,-0.174L0.561,-0.174C0.545,-0.118 0.515,-0.074 0.471,-0.041C0.427,-0.008 0.372,0.009 0.307,0.009C0.254,0.009 0.208,-0.003 0.167,-0.027C0.126,-0.05 0.094,-0.084 0.072,-0.127C0.049,-0.169 0.037,-0.219 0.037,-0.276Z" style="fill:rgb(53,53,53);fill-rule:nonzero;"/>
        </g>
        <g transform="matrix(36,0,0,36,21.6,0)">
            <rect x="0.075" y="-0.74" width="0.114" height="0.74" style="fill:rgb(53,53,53);fill-rule:nonzero;"/>
        </g>
        <g transform="matrix(36,0,0,36,31.104,0)">
            <path d="M0.037,-0.278C0.037,-0.333 0.049,-0.382 0.072,-0.425C0.094,-0.468 0.126,-0.501 0.166,-0.525C0.205,-0.548 0.249,-0.56 0.297,-0.56C0.34,-0.56 0.378,-0.552 0.411,-0.535C0.443,-0.518 0.469,-0.496 0.488,-0.471L0.488,-0.551L0.603,-0.551L0.603,-0L0.488,-0L0.488,-0.082C0.469,-0.056 0.442,-0.034 0.409,-0.017C0.376,0 0.338,0.009 0.295,0.009C0.248,0.009 0.204,-0.003 0.165,-0.028C0.126,-0.052 0.094,-0.086 0.072,-0.13C0.049,-0.173 0.037,-0.223 0.037,-0.278ZM0.488,-0.276C0.488,-0.314 0.48,-0.347 0.465,-0.375C0.449,-0.403 0.428,-0.424 0.403,-0.439C0.378,-0.454 0.35,-0.461 0.321,-0.461C0.292,-0.461 0.264,-0.454 0.239,-0.44C0.214,-0.425 0.193,-0.404 0.178,-0.377C0.162,-0.349 0.154,-0.316 0.154,-0.278C0.154,-0.24 0.162,-0.207 0.178,-0.178C0.193,-0.149 0.214,-0.128 0.24,-0.113C0.265,-0.097 0.292,-0.09 0.321,-0.09C0.35,-0.09 0.378,-0.097 0.403,-0.112C0.428,-0.127 0.449,-0.148 0.465,-0.177C0.48,-0.205 0.488,-0.238 0.488,-0.276Z" style="fill:rgb(53,53,53);fill-rule:nonzero;"/>
        </g>
        <g transform="matrix(36,0,0,36,55.512,0)">
            <path d="M0.189,-0.47C0.208,-0.495 0.235,-0.517 0.268,-0.534C0.301,-0.551 0.339,-0.56 0.381,-0.56C0.429,-0.56 0.473,-0.548 0.513,-0.525C0.552,-0.501 0.583,-0.468 0.606,-0.425C0.629,-0.382 0.64,-0.333 0.64,-0.278C0.64,-0.223 0.629,-0.173 0.606,-0.13C0.583,-0.086 0.552,-0.052 0.513,-0.028C0.473,-0.003 0.429,0.009 0.381,0.009C0.339,0.009 0.302,0.001 0.269,-0.017C0.236,-0.034 0.21,-0.055 0.189,-0.08L0.189,0.262L0.075,0.262L0.075,-0.551L0.189,-0.551L0.189,-0.47ZM0.524,-0.278C0.524,-0.316 0.516,-0.349 0.501,-0.377C0.485,-0.404 0.464,-0.425 0.439,-0.44C0.413,-0.454 0.385,-0.461 0.356,-0.461C0.327,-0.461 0.3,-0.454 0.275,-0.439C0.249,-0.424 0.228,-0.403 0.213,-0.375C0.197,-0.347 0.189,-0.314 0.189,-0.276C0.189,-0.238 0.197,-0.205 0.213,-0.177C0.228,-0.148 0.249,-0.127 0.275,-0.112C0.3,-0.097 0.327,-0.09 0.356,-0.09C0.385,-0.09 0.413,-0.097 0.439,-0.113C0.464,-0.128 0.485,-0.149 0.501,-0.178C0.516,-0.207 0.524,-0.24 0.524,-0.278Z" style="fill:rgb(53,53,53);fill-rule:nonzero;"/>
        </g>
        <g transform="matrix(36,0,0,36,79.92,0)">
            <path d="M0.58,-0.289C0.58,-0.268 0.579,-0.25 0.576,-0.233L0.155,-0.233C0.158,-0.189 0.175,-0.154 0.204,-0.127C0.233,-0.1 0.269,-0.087 0.312,-0.087C0.373,-0.087 0.417,-0.113 0.442,-0.164L0.565,-0.164C0.548,-0.113 0.518,-0.072 0.475,-0.04C0.431,-0.007 0.377,0.009 0.312,0.009C0.259,0.009 0.212,-0.003 0.171,-0.027C0.129,-0.05 0.096,-0.084 0.073,-0.127C0.049,-0.169 0.037,-0.219 0.037,-0.276C0.037,-0.333 0.049,-0.383 0.072,-0.426C0.094,-0.468 0.127,-0.502 0.169,-0.525C0.21,-0.548 0.258,-0.56 0.312,-0.56C0.364,-0.56 0.41,-0.549 0.451,-0.526C0.492,-0.503 0.523,-0.471 0.546,-0.431C0.569,-0.389 0.58,-0.342 0.58,-0.289ZM0.461,-0.325C0.46,-0.367 0.445,-0.401 0.416,-0.426C0.387,-0.451 0.35,-0.464 0.307,-0.464C0.268,-0.464 0.234,-0.452 0.206,-0.427C0.178,-0.401 0.161,-0.368 0.156,-0.325L0.461,-0.325Z" style="fill:rgb(53,53,53);fill-rule:nonzero;"/>
        </g>
        <g transform="matrix(36,0,0,36,102.132,0)">
            <path d="M0.189,-0.471C0.206,-0.499 0.228,-0.521 0.256,-0.537C0.283,-0.552 0.316,-0.56 0.354,-0.56L0.354,-0.442L0.325,-0.442C0.28,-0.442 0.247,-0.431 0.224,-0.408C0.201,-0.385 0.189,-0.346 0.189,-0.29L0.189,-0L0.075,-0L0.075,-0.551L0.189,-0.551L0.189,-0.471Z" style="fill:rgb(53,53,53);fill-rule:nonzero;"/>
        </g>
    </g>
    <g id="Logo">
        <path d="M6.8,33.5C6.273,34.098 5.513,34.441 4.715,34.441C3.785,34.441 2.915,33.974 2.4,33.2C1.013,31.038 0.188,28.562 0,26C-0.186,24.019 -0.017,22.021 0.5,20.1C0.9,18.7 1.9,17.9 3.2,18.2C4.22,18.433 4.949,19.348 4.949,20.394C4.949,20.669 4.899,20.943 4.8,21.2C4.234,23.436 4.269,25.782 4.9,28C7.8,24.2 10.5,20.7 13.2,17.1C14.7,15.1 16.2,13.1 17.7,11.2C18.562,10.149 20.124,9.971 21.2,10.8C21.87,11.14 22.295,11.831 22.295,12.583C22.295,13.067 22.119,13.536 21.8,13.9L6.8,33.5Z" style="fill:rgb(20,191,219);fill-rule:nonzero;"/>
        <path d="M10.4,35.7L26.7,14.8" style="fill:none;fill-rule:nonzero;stroke:rgb(41,172,237);stroke-width:4px;"/>
        <path d="M17.2,37L29.7,21.2" style="fill:none;fill-rule:nonzero;stroke:rgb(134,17,237);stroke-width:4px;"/>
        <path d="M25.2,36.6L31.5,28.2" style="fill:none;fill-rule:nonzero;stroke:rgb(184,15,239);stroke-width:4px;"/>
    </g>
</svg>
