<?xml version="1.0" encoding="utf-8"?>
<!-- Generator: Adobe Illustrator 24.2.0, SVG Export Plug-In . SVG Version: 6.00 Build 0)  -->
<svg version="1.1" id="Calque_1" xmlns="http://www.w3.org/2000/svg" xmlns:xlink="http://www.w3.org/1999/xlink" x="0px" y="0px"
	 viewBox="0 0 33.9 29" style="enable-background:new 0 0 33.9 29;" xml:space="preserve">
<style type="text/css">
	.st0{fill:#FFFFFF;}
	.st1{fill:none;stroke:#FFFFFF;stroke-width:4;stroke-linecap:round;stroke-miterlimit:10;}
</style>
<g id="Logo">
	<path class="st0" d="M6.8,23.3c-1,1.2-2.8,1.3-3.9,0.2c-0.2-0.2-0.3-0.3-0.5-0.5C1,20.9,0.2,18.4,0,15.8c-0.2-2,0-3.9,0.5-5.9
		c0.4-1.4,1.4-2.2,2.7-1.9c1.2,0.3,2,1.5,1.7,2.7c0,0.1-0.1,0.2-0.1,0.3c-0.6,2.2-0.5,4.6,0.1,6.8c2.9-3.8,5.6-7.3,8.3-10.9
		c1.5-2,3-4,4.5-5.9c0.9-1.1,2.4-1.2,3.5-0.4c1,0.5,1.4,1.7,0.9,2.7c-0.1,0.1-0.2,0.3-0.3,0.4L6.8,23.3z"/>
	<line class="st1" x1="10.4" y1="25.5" x2="26.7" y2="4.6"/>
	<line class="st1" x1="17.2" y1="26.8" x2="29.7" y2="11"/>
	<line class="st1" x1="25.2" y1="26.4" x2="31.5" y2="18"/>
</g>
</svg>
