<?xml version="1.0" standalone="no"?>
<!DOCTYPE svg PUBLIC "-//W3C//DTD SVG 20010904//EN"
 "http://www.w3.org/TR/2001/REC-SVG-20010904/DTD/svg10.dtd">
<svg version="1.0" xmlns="http://www.w3.org/2000/svg"
 width="749.000000pt" height="705.000000pt" viewBox="0 0 749.000000 705.000000"
 preserveAspectRatio="xMidYMid meet">

<g transform="translate(0.000000,705.000000) scale(0.100000,-0.100000)"
fill="#fff" stroke="none">
<path d="M6065 7026 c-42 -19 -62 -44 -86 -112 -18 -49 -23 -94 -29 -264 -5
-113 -11 -218 -14 -235 -74 -422 -125 -616 -244 -940 -37 -100 -69 -180 -81
-203 -5 -9 -37 -72 -70 -140 -34 -68 -70 -135 -80 -150 -55 -80 -85 -148 -117
-257 -27 -97 -17 -98 70 -7 111 116 280 337 356 463 14 23 36 58 49 78 56 85
183 349 244 511 48 125 124 371 134 433 6 43 22 47 43 13 19 -32 134 -198 176
-256 32 -43 47 -64 167 -225 161 -216 323 -452 370 -540 28 -52 55 -122 133
-345 92 -264 142 -380 180 -411 23 -19 92 6 135 50 81 81 90 301 22 561 -23
91 -107 274 -167 365 -113 173 -193 282 -422 575 -68 86 -213 281 -249 334
-99 144 -119 184 -165 328 -80 249 -136 341 -227 372 -56 19 -88 20 -128 2z"/>
<path d="M6175 5393 c-24 -6 -120 -72 -158 -108 -16 -15 -33 -38 -38 -52 -12
-32 3 -83 32 -109 37 -34 57 -85 53 -139 -25 -374 -130 -834 -274 -1200 -17
-44 -40 -102 -50 -130 -60 -159 -216 -486 -337 -700 -90 -162 -88 -158 -149
-255 -152 -242 -284 -431 -413 -590 -524 -645 -1064 -1095 -1676 -1394 -393
-193 -728 -296 -1140 -352 -183 -25 -539 -25 -690 0 -326 52 -614 176 -825
355 -30 25 -63 53 -74 61 -10 8 -52 53 -93 100 -76 86 -99 127 -238 428 -21
45 -41 82 -45 82 -4 0 -15 -9 -26 -21 -39 -43 -26 -325 21 -460 9 -23 44 -86
79 -139 204 -306 614 -575 1046 -685 202 -52 269 -59 540 -60 258 0 325 6 535
46 712 138 1528 571 2245 1193 114 99 412 392 504 495 52 59 249 306 306 384
19 27 44 60 56 75 29 37 218 320 238 357 9 17 35 59 57 95 181 286 415 784
530 1125 11 33 25 69 30 80 5 11 19 52 30 90 101 336 133 479 181 810 6 44 12
157 12 250 1 185 -9 232 -62 304 -41 56 -130 83 -207 64z"/>
</g>
</svg>
