<svg width="190" height="190" viewBox="0 0 190 190" fill="none" xmlns="http://www.w3.org/2000/svg">
<path d="M170.542 128.454C166.869 123.116 168.92 115.399 168.005 106.88C167.065 92.9793 161.092 79.5124 149.507 68.741L110.047 32.0506C110.047 32.0506 102.272 24.815 95.0315 32.595C87.8012 40.3696 95.5812 47.6052 95.5812 47.6052L112.251 63.1122L126.701 76.5474C126.701 76.5474 123.08 80.4373 107.087 65.5646L53.0717 15.3227C53.0717 15.3227 45.2865 8.09242 38.0509 15.8724C30.8206 23.647 38.5953 30.8826 38.5953 30.8826L89.6722 78.3919C89.5612 78.2862 85.8087 82.0493 85.74 81.9859L31.0902 31.1574C31.0902 31.1574 23.3103 23.9218 16.0747 31.7018C8.83917 39.4817 16.6191 46.712 16.6191 46.712L71.2742 97.5511C71.3376 97.6145 67.8176 101.589 67.9233 101.689L20.7786 57.8322C20.7786 57.8322 12.9987 50.5966 5.76314 58.3766C-1.47241 66.1565 6.30752 73.3921 6.30752 73.3921L56.4331 120.008C56.8929 120.436 53.7905 124.807 54.3666 125.341L18.247 91.7478C18.247 91.7478 10.467 84.5123 3.23149 92.2975C-4.00406 100.077 3.77587 107.313 3.77587 107.313L62.6909 162.084C72.5268 171.233 82.627 175.863 94.8042 177.56C97.283 177.903 100.454 177.903 101.754 178.067C105.861 178.585 109.466 180.044 114.291 183.003C120.501 186.809 129.819 188.394 135.173 182.67L153.429 163.141L170.283 145.108C175.632 139.389 174.675 134.453 170.542 128.454V128.454Z" fill="#EF9645"/>
<path d="M10.1551 184.896C8.80209 184.896 7.44906 184.378 6.41843 183.347C4.35189 181.281 4.35189 177.94 6.41843 175.874L25.1865 157.116C27.253 155.05 30.5933 155.05 32.6598 157.116C34.7264 159.183 34.7264 162.523 32.6598 164.59L13.8918 183.352C12.8612 184.383 11.5082 184.896 10.1551 184.896V184.896ZM45.8096 189.769C45.2335 189.769 44.6416 189.674 44.0602 189.473C41.3066 188.511 39.8531 185.498 40.8203 182.739L45.9523 168.083C46.9142 165.33 49.9321 163.881 52.6858 164.838C55.4394 165.805 56.8929 168.818 55.9256 171.572L50.7936 186.228C50.0326 188.405 47.9924 189.769 45.8096 189.769V189.769ZM5.28738 149.247C3.10984 149.247 1.06973 147.888 0.303361 145.721C-0.66913 142.968 0.773751 139.95 3.52738 138.977L16.7142 134.321C19.4784 133.37 22.4857 134.802 23.4582 137.545C24.4307 140.299 22.9878 143.316 20.2342 144.289L7.04738 148.945C6.46071 149.151 5.86876 149.247 5.28738 149.247V149.247ZM160.992 34.2019C159.639 34.2019 158.286 33.6839 157.255 32.6533C155.188 30.5867 155.188 27.2411 157.255 25.1746L176.028 6.41186C178.095 4.3506 181.435 4.3506 183.502 6.41186C185.568 8.47312 185.568 11.824 183.502 13.8905L164.728 32.6533C163.698 33.6892 162.345 34.2019 160.992 34.2019V34.2019ZM138.984 25.2327C138.408 25.2327 137.816 25.1323 137.24 24.9315C134.486 23.9696 133.033 20.9569 133.995 18.198L139.121 3.54195C140.088 0.788319 143.096 -0.665133 145.855 0.296788C148.608 1.25871 150.062 4.27132 149.1 7.03023L143.973 21.6863C143.212 23.8691 141.167 25.2327 138.984 25.2327V25.2327ZM171.451 55.7499C169.274 55.7499 167.234 54.3916 166.467 52.2247C165.495 49.471 166.943 46.4531 169.691 45.4806L182.873 40.8243C185.632 39.8465 188.644 41.3 189.617 44.0483C190.589 46.802 189.141 49.8199 186.393 50.7923L173.211 55.4487C172.625 55.6548 172.033 55.7499 171.451 55.7499V55.7499Z" fill="#FA743E"/>
<path d="M186.863 125.679C183.37 120.225 185.679 112.577 185.056 104.031C184.58 90.1095 179.067 76.4471 167.852 65.2899L129.65 27.294C129.65 27.294 122.124 19.8048 114.624 27.3363C107.135 34.8625 114.666 42.357 114.666 42.357L130.808 58.419L144.792 72.3299C144.792 72.3299 141.04 76.093 125.559 60.6917C110.068 45.2851 73.2667 8.6581 73.2667 8.6581C73.2667 8.6581 65.7351 1.16886 58.2406 8.70038C50.7461 16.2266 58.2776 23.7159 58.2776 23.7159L107.727 72.9218C107.621 72.8161 103.742 76.4471 103.673 76.3784L50.7672 23.737C50.7672 23.737 43.2357 16.2425 35.7412 23.774C28.2519 31.3055 35.7782 38.7948 35.7782 38.7948L88.6891 91.4467C88.7525 91.5101 85.0951 95.3631 85.2008 95.4688L39.5624 50.0524C39.5624 50.0524 32.0309 42.5632 24.5364 50.0947C17.0419 57.6262 24.5734 65.1207 24.5734 65.1207L73.0975 113.402C73.5415 113.84 70.2963 118.111 70.8513 118.666L35.8839 83.8729C35.8839 83.8729 28.3524 76.3837 20.8578 83.9152C13.3633 91.4467 20.8948 98.9412 20.8948 98.9412L77.923 155.663C87.4471 165.139 97.3834 170.102 109.497 172.211C111.965 172.639 115.137 172.745 116.426 172.951C120.512 173.606 124.063 175.187 128.794 178.31C134.872 182.322 144.132 184.219 149.676 178.68L168.581 159.78L186.033 142.328C191.578 136.779 190.79 131.81 186.863 125.679V125.679Z" fill="#FFDB5E"/>
</svg>
