<svg width="33" height="33" viewBox="0 0 33 33" xmlns="http://www.w3.org/2000/svg">
<path fill="#fff" d="M15.251 4.9995C15.6755 5.10585 16.0403 5.37646 16.2653 5.7518C16.4902 6.12714 16.5569 6.57647 16.4505 7.00095L15.7245 9.9H20.5755L21.4995 6.19905C21.5509 5.98753 21.6437 5.78827 21.7724 5.61274C21.9011 5.43722 22.0633 5.2889 22.2496 5.17633C22.4359 5.06376 22.6427 4.98917 22.8579 4.95686C23.0732 4.92454 23.2927 4.93513 23.5039 4.98803C23.715 5.04092 23.9136 5.13507 24.0882 5.26506C24.2628 5.39504 24.41 5.55829 24.5212 5.7454C24.6324 5.9325 24.7056 6.13977 24.7363 6.35525C24.7671 6.57074 24.755 6.79018 24.7005 7.00095L23.9745 9.9H28.05C28.4877 9.9 28.9073 10.0738 29.2168 10.3833C29.5262 10.6927 29.7 11.1124 29.7 11.55C29.7 11.9876 29.5262 12.4073 29.2168 12.7167C28.9073 13.0262 28.4877 13.2 28.05 13.2H23.1495L21.4995 19.8H24.75C25.1877 19.8 25.6073 19.9738 25.9168 20.2833C26.2262 20.5927 26.4 21.0124 26.4 21.45C26.4 21.8876 26.2262 22.3073 25.9168 22.6167C25.6073 22.9262 25.1877 23.1 24.75 23.1H20.6745L19.7505 26.7993C19.7011 27.0127 19.6096 27.2141 19.4814 27.3918C19.3533 27.5695 19.1911 27.7198 19.0042 27.8341C18.8173 27.9485 18.6096 28.0244 18.393 28.0576C18.1765 28.0908 17.9555 28.0805 17.743 28.0273C17.5305 27.9742 17.3307 27.8793 17.1552 27.7481C16.9798 27.617 16.8322 27.4522 16.7211 27.2634C16.61 27.0746 16.5376 26.8655 16.5082 26.6485C16.4787 26.4314 16.4928 26.2106 16.5495 25.999L17.2755 23.1H12.4245L11.5005 26.7993C11.4511 27.0127 11.3596 27.2141 11.2315 27.3918C11.1033 27.5695 10.9411 27.7198 10.7542 27.8341C10.5673 27.9485 10.3596 28.0244 10.143 28.0576C9.9265 28.0908 9.70553 28.0805 9.49301 28.0273C9.28049 27.9742 9.08067 27.8793 8.90522 27.7481C8.72977 27.617 8.5822 27.4522 8.4711 27.2634C8.36001 27.0746 8.28763 26.8655 8.25817 26.6485C8.22872 26.4314 8.24278 26.2106 8.29955 25.999L9.02555 23.1H4.95005C4.51244 23.1 4.09276 22.9262 3.78332 22.6167C3.47389 22.3073 3.30005 21.8876 3.30005 21.45C3.30005 21.0124 3.47389 20.5927 3.78332 20.2833C4.09276 19.9738 4.51244 19.8 4.95005 19.8H9.85055L11.5005 13.2H8.25005C7.81244 13.2 7.39276 13.0262 7.08332 12.7167C6.77389 12.4073 6.60005 11.9876 6.60005 11.55C6.60005 11.1124 6.77389 10.6927 7.08332 10.3833C7.39276 10.0738 7.81244 9.9 8.25005 9.9H12.3255L13.2495 6.19905C13.3559 5.77458 13.6265 5.40973 14.0018 5.18477C14.3772 4.95982 14.8265 4.89317 15.251 4.9995V4.9995ZM14.8995 13.2L13.2495 19.8H18.0972L19.7472 13.2H14.9012H14.8995Z"/>
</svg>
