<svg width="214" height="203" viewBox="0 0 214 203" fill="none" xmlns="http://www.w3.org/2000/svg">
<path d="M10.2755 118.885C6.6078 118.885 4.61049 117.363 3.57617 116.085C2.55969 114.831 1.50754 112.608 2.23869 109.16L18.4549 33.631L8.26627 34.2076H8.189C5.11576 34.2076 2.88663 33.2089 1.4897 31.4791C0.181943 29.8622 -0.287662 27.7877 0.175998 25.6536C1.06765 21.4807 5.42487 18.0092 10.0852 17.7536L33.9102 16.4042C34.3739 16.3745 34.8019 16.3567 35.2002 16.3567C36.074 16.3567 38.3863 16.3567 39.8546 18.1756C41.3526 20.0303 40.8473 22.3902 40.6809 23.1629L22.1107 109.695C20.9991 114.95 16.6478 118.546 11.0185 118.861L10.2755 118.885ZM74.1357 106.996C65.5818 106.996 58.4723 103.792 53.5742 97.729C46.6609 89.1751 44.8538 76.0261 48.355 59.7029C54.4896 31.0987 73.3689 11.0424 95.3274 9.80003C104.779 9.27098 112.602 12.4869 117.874 19.0078C124.788 27.5618 126.595 40.7107 123.093 57.0339C116.959 85.6263 98.0796 105.683 76.1093 106.931C75.4435 106.978 74.7837 106.996 74.1357 106.996V106.996ZM94.4298 25.2851L93.6154 25.3089C82.0833 25.9687 72.4832 39.0047 67.9358 60.1785C65.0944 73.4225 65.671 83.3555 69.5526 88.1586C71.3181 90.3461 73.8147 91.4577 76.9771 91.4577L77.8093 91.4339C89.3414 90.786 98.9356 77.7559 103.477 56.5762C106.318 43.3322 105.748 33.3932 101.872 28.5901C100.113 26.3967 97.6041 25.2851 94.4298 25.2851V25.2851ZM163.331 97.2534C154.777 97.2534 147.656 94.0494 142.751 87.9802C135.838 79.4263 134.031 66.2774 137.532 49.9542C143.673 21.344 162.552 1.29365 184.511 0.057221C194.039 -0.477771 201.767 2.75002 207.04 9.26503C213.953 17.819 215.76 30.9679 212.259 47.2852C206.13 75.8716 187.257 95.9279 165.287 97.194C164.621 97.2416 163.973 97.2534 163.331 97.2534V97.2534ZM183.607 15.5363L182.799 15.5601C171.261 16.2199 161.66 29.2559 157.119 50.4238C154.278 63.6738 154.854 73.6127 158.736 78.4098C160.501 80.5974 163.01 81.7089 166.172 81.7089L167.004 81.6852C178.531 81.0372 188.131 68.0013 192.672 46.8274C195.52 33.5894 194.949 23.6504 191.067 18.8473C189.296 16.6479 186.787 15.5363 183.607 15.5363V15.5363ZM65.3916 202.112C60.5766 202.112 56.047 199.164 54.2578 194.39C51.9514 188.244 55.0662 181.39 61.2127 179.084C63.2159 178.335 111.139 160.608 183.286 154.593C189.831 154.022 195.573 158.914 196.12 165.453C196.667 171.998 191.798 177.74 185.26 178.287C116.364 184.029 70.0222 201.179 69.5586 201.351C68.1914 201.862 66.7766 202.112 65.3916 202.112V202.112ZM11.8983 166.44C7.11901 166.44 2.60724 163.539 0.794212 158.813C-1.55975 152.685 1.49565 145.807 7.62428 143.459C10.8461 142.217 87.9683 112.988 201.482 107.014C208.098 106.604 213.638 111.704 213.983 118.261C214.333 124.817 209.293 130.417 202.736 130.762C93.2231 136.528 16.9094 165.364 16.1485 165.655C14.7516 166.184 13.313 166.44 11.8983 166.44V166.44Z" fill="#BB1A34"/>
</svg>
