<svg width="65" height="64" viewBox="0 0 65 64" fill="none" xmlns="http://www.w3.org/2000/svg">
<path d="M64.2934 31.9999C64.2934 49.4063 50.0148 63.5173 32.4018 63.5173C14.7906 63.5173 0.510254 49.4063 0.510254 31.9999C0.510254 14.5952 14.7906 0.482422 32.4018 0.482422C50.0148 0.482422 64.2934 14.5952 64.2934 31.9999Z" fill="#FFCC4D"/>
<path d="M50.9286 31.645C50.8223 31.4086 48.2727 25.872 43.0319 25.872C37.7928 25.872 35.2415 31.4086 35.1351 31.645C34.9721 32.0074 35.0785 32.4312 35.3921 32.6798C35.7021 32.9284 36.1468 32.9372 36.4728 32.7043C36.4941 32.6885 38.7088 31.1249 43.0319 31.1249C47.3301 31.1249 49.5413 32.6675 49.5909 32.7026C49.7468 32.8181 49.9346 32.8759 50.1189 32.8759C50.3138 32.8759 50.5104 32.8111 50.6717 32.685C50.9853 32.4364 51.0933 32.0092 50.9286 31.645ZM29.6675 31.645C29.5612 31.4086 27.0117 25.872 21.7708 25.872C16.5317 25.872 13.9804 31.4086 13.8741 31.645C13.7111 32.0074 13.8174 32.4312 14.1292 32.6798C14.4411 32.9284 14.8858 32.9372 15.21 32.7043C15.233 32.6885 17.446 31.1249 21.7708 31.1249C26.0691 31.1249 28.2802 32.6675 28.3298 32.7026C28.4858 32.8181 28.6736 32.8759 28.8578 32.8759C29.0527 32.8759 29.2494 32.8111 29.4106 32.685C29.726 32.4364 29.8305 32.0092 29.6675 31.645ZM55.4341 28.4985C54.7325 28.4985 54.0663 28.0817 53.7882 27.3971C50.638 19.6141 42.7626 17.9752 42.6828 17.9576C41.7243 17.7685 41.1006 16.8458 41.2938 15.8968C41.4851 14.9477 42.4188 14.3366 43.3791 14.524C43.7795 14.6028 53.223 16.5691 57.0783 26.0944C57.4415 26.9926 56.9986 28.0117 56.0897 28.3707C55.8771 28.4582 55.6538 28.4985 55.4341 28.4985ZM9.36854 28.4985C9.14884 28.4985 8.92737 28.4582 8.71122 28.3724C7.80231 28.0135 7.36114 26.9944 7.72435 26.0961C11.5797 16.5709 21.0231 14.6045 21.4235 14.5257C22.3856 14.3401 23.3158 14.9512 23.5089 15.8985C23.7003 16.844 23.0801 17.765 22.1252 17.9576C21.7974 18.0242 14.1416 19.6736 11.0145 27.3971C10.7363 28.0817 10.0702 28.4985 9.36854 28.4985ZM32.4013 39.0043C25.9823 39.0043 21.723 38.2654 16.4556 37.2533C15.2525 37.0239 12.912 37.2533 12.912 40.7553C12.912 47.7591 21.0533 56.514 32.4013 56.514C43.7476 56.514 51.8906 47.7591 51.8906 40.7553C51.8906 37.2533 49.5501 37.0222 48.3471 37.2533C43.0797 38.2654 38.8204 39.0043 32.4013 39.0043Z" fill="#664500"/>
<path d="M16.4551 40.7549C16.4551 40.7549 21.7703 42.5059 32.4009 42.5059C43.0314 42.5059 48.3466 40.7549 48.3466 40.7549C48.3466 40.7549 44.8031 47.7588 32.4009 47.7588C19.9986 47.7588 16.4551 40.7549 16.4551 40.7549Z" fill="#212121"/>
<path d="M19.7292 49.9106C18.5245 54.5979 13.7053 57.431 8.9623 56.2404C4.22109 55.0515 1.35262 50.2888 2.55564 45.6015C3.75866 40.9141 13.7832 30.354 15.5018 30.7848C17.2204 31.2173 20.9323 45.225 19.7292 49.9106ZM45.0405 49.9106C46.2453 54.5979 51.0645 57.431 55.8075 56.2404C60.5505 55.0515 63.4189 50.2888 62.2141 45.6015C61.0093 40.9141 50.9848 30.354 49.2662 30.7848C47.5511 31.2173 43.8375 45.225 45.0405 49.9106Z" fill="#5DADEC"/>
</svg>
