<svg width="24" height="24" viewBox="0 0 24 24" fill="none" xmlns="http://www.w3.org/2000/svg">
<g clip-path="url(#clip0_255_3833)">
<path d="M11.9777 2.37778C6.6772 2.37778 2.19995 6.85502 2.19995 12.1556C2.19995 17.4561 6.6772 21.9333 11.9777 21.9333C17.2783 21.9333 21.7555 17.4561 21.7555 12.1556C21.7555 6.85502 17.2783 2.37778 11.9777 2.37778ZM11.9777 7.26667C13.6664 7.26667 14.9111 8.5104 14.9111 10.2C14.9111 11.8896 13.6664 13.1333 11.9777 13.1333C10.2901 13.1333 9.0444 11.8896 9.0444 10.2C9.0444 8.5104 10.2901 7.26667 11.9777 7.26667ZM6.9852 16.8215C7.86226 15.5308 9.32502 14.6704 11 14.6704H12.9555C14.6314 14.6704 16.0932 15.5308 16.9703 16.8215C15.7207 18.1591 13.948 19 11.9777 19C10.0075 19 8.2348 18.1591 6.9852 16.8215Z" fill="white"/>
<circle cx="19.3111" cy="4.82221" r="4.4" fill="#22C55E"/>
</g>
<defs>
<clipPath id="clip0_255_3833">
<rect width="23.4667" height="23.4667" fill="white" transform="translate(0.244385 0.422211)"/>
</clipPath>
</defs>
</svg>
