<svg width="198" height="202" viewBox="0 0 198 202" fill="none" xmlns="http://www.w3.org/2000/svg">
<path d="M14.9015 145.819H59.7688V201.903H14.9015V145.819ZM138.287 145.819H183.154V201.903H138.287V145.819Z" fill="#FFDC5D"/>
<path d="M183.154 161.074C183.154 161.074 166.329 172.29 138.287 166.682V138.64H183.154V161.074ZM14.9015 161.074C14.9015 161.074 31.7267 172.29 59.7688 166.682V138.64H14.9015V161.074Z" fill="#F9CA55"/>
<path d="M20.4147 104.339H65.282V149.206H20.4147V104.339ZM132.712 101.535H177.579V146.402H132.712V101.535Z" fill="#EF9645"/>
<path d="M0.168468 66.3755C0.168468 66.3755 0.185294 59.5052 7.05 59.5221C13.9259 59.5445 13.9035 66.4148 13.9035 66.4148L13.7969 98.293C14.8906 97.7883 16.0347 97.334 17.2349 96.9414L17.3751 52.6966C17.3751 52.6966 17.3975 45.8263 24.2566 45.8487C31.1213 45.8656 31.1045 52.7415 31.1045 52.7415L30.9867 94.3559C32.1028 94.255 33.2525 94.1765 34.4079 94.1204L34.5649 45.8768C34.5649 45.8768 34.5817 39.0065 41.452 39.0345C48.3223 39.0569 48.2943 45.9273 48.2943 45.9273L48.1373 94.1596C49.315 94.2269 50.4479 94.3447 51.5808 94.4513L51.721 49.3652C51.721 49.3652 51.7435 42.4949 58.6026 42.5229C65.4673 42.5398 65.4392 49.4045 65.4392 49.4045L65.3046 97.0816L65.2878 100.901V104.328C44.6825 104.277 30.8914 121.389 30.8297 138.561C30.8297 141.994 34.262 142.016 34.262 142.016C34.3181 121.389 48.098 107.721 68.7089 107.782L78.8097 84.2944C78.8097 84.2944 81.025 77.7943 87.5364 80.0208C94.0309 82.2193 91.8268 88.7307 91.8268 88.7307L86.8185 106.145C84.8331 113.066 82.9767 120.031 82.0009 127.143C79.2079 147.243 61.9171 162.7 41.065 162.644C18.3229 162.549 -0.0726934 144.052 0.000215981 121.31C0.0058244 120.11 0.0787339 118.966 0.190902 117.889L0.0114328 117.866L0.168468 66.3755V66.3755ZM197.832 66.3755C197.832 66.3755 197.815 59.5052 190.95 59.5221C184.074 59.5445 184.091 66.4148 184.091 66.4148L184.197 98.293C183.109 97.7883 181.96 97.334 180.765 96.9414L180.625 52.6966C180.625 52.6966 180.602 45.8263 173.743 45.8487C166.873 45.8656 166.89 52.7415 166.89 52.7415L167.013 94.3559C165.903 94.255 164.753 94.1765 163.592 94.1204L163.441 45.8768C163.441 45.8768 163.418 39.0065 156.548 39.0345C149.678 39.0569 149.706 45.9273 149.706 45.9273L149.863 94.1596C148.685 94.2269 147.552 94.3447 146.419 94.4513L146.279 49.3652C146.279 49.3652 146.251 42.4949 139.392 42.5229C132.527 42.5398 132.555 49.4045 132.555 49.4045L132.69 97.0816L132.707 100.901V104.328C153.312 104.277 167.103 121.389 167.17 138.561C167.17 141.994 163.738 142.016 163.738 142.016C163.676 121.389 149.896 107.721 129.291 107.782L119.19 84.2944C119.19 84.2944 116.981 77.7943 110.464 80.0208C103.975 82.2193 106.173 88.7307 106.173 88.7307L111.181 106.145C113.167 113.066 115.023 120.031 115.999 127.143C118.792 147.243 136.077 162.7 156.935 162.644C179.677 162.549 198.078 144.052 198 121.31C197.994 120.11 197.921 118.966 197.809 117.889L197.989 117.866L197.832 66.3755V66.3755Z" fill="#FFDC5D"/>
<path d="M130.104 36.2192C128.909 36.2192 127.698 35.8378 126.683 35.0526C124.226 33.157 123.778 29.6349 125.673 27.184L142.381 5.56355C144.26 3.11828 147.793 2.64717 150.244 4.55403C152.7 6.44968 153.149 9.97176 151.253 12.4226L134.546 34.0431C133.447 35.4732 131.787 36.2192 130.104 36.2192V36.2192ZM68.2993 36.2192C66.6224 36.2192 64.9623 35.4676 63.8575 34.0375L47.15 12.4226C45.2599 9.97176 45.7142 6.44968 48.1651 4.55403C50.616 2.664 54.1325 3.11267 56.0337 5.56355L72.7412 27.184C74.6312 29.6349 74.1826 33.157 71.7317 35.0526C70.7053 35.8434 69.4995 36.2192 68.2993 36.2192V36.2192ZM99.0278 33.6505C95.932 33.6505 93.4194 31.1379 93.4194 28.0421V5.60842C93.4194 2.51257 95.932 0 99.0278 0C102.129 0 104.636 2.51257 104.636 5.60842V28.0421C104.636 31.1379 102.129 33.6505 99.0278 33.6505Z" fill="#5DADEC"/>
</svg>
