<svg width="59" height="64" viewBox="0 0 59 64" fill="none" xmlns="http://www.w3.org/2000/svg">
<path d="M58.4278 31.634C58.4278 30.7337 58.2113 29.889 57.8488 29.1211C55.4298 21.3787 44.1052 21.9442 27.9968 21.5666C25.3037 21.5039 26.8442 18.3486 27.7894 11.4222C28.4045 6.91741 25.4769 0 20.556 0C12.4422 0 20.2475 6.35006 13.0736 22.0534C9.24041 30.4438 0.672119 25.7439 0.672119 34.1718V53.3563C0.672119 56.6369 0.996812 59.7904 5.64714 60.3095C10.155 60.8124 9.1412 63.9999 15.6441 63.9999H48.1927C51.5082 63.9999 54.205 61.3225 54.205 58.0329C54.205 56.6691 53.7234 55.427 52.9459 54.4212C54.7858 53.3992 56.0485 51.4699 56.0485 49.2327C56.0485 47.8724 55.5687 46.6303 54.793 45.6263C56.6384 44.6061 57.9047 42.675 57.9047 40.4342C57.9047 38.8073 57.2409 37.3326 56.1712 36.2533C57.5367 35.1598 58.4278 33.5061 58.4278 31.634Z" fill="#FFDB5E"/>
<path d="M36.8989 37.599H52.4192C54.5297 37.599 56.5104 36.4786 57.5891 34.6763C58.0328 33.9336 57.7857 32.9725 57.0353 32.5304C56.2867 32.0883 55.318 32.3371 54.8725 33.0798C54.362 33.9371 53.4186 34.4669 52.4174 34.4669H36.5255C34.9507 34.4669 33.67 33.1962 33.67 31.6337C33.67 30.0713 34.9507 28.8005 36.5255 28.8005H47.1448C48.016 28.8005 48.7231 28.0989 48.7231 27.2345C48.7231 26.37 48.016 25.6685 47.1448 25.6685H36.5237C33.2082 25.6685 30.5115 28.3441 30.5115 31.6337C30.5115 33.4682 31.3683 35.0915 32.6851 36.1869C31.5757 37.2697 30.8849 38.7731 30.8849 40.434C30.8849 42.2738 31.7471 43.9025 33.0711 44.996C31.969 46.0771 31.2853 47.5751 31.2853 49.2324C31.2853 51.2369 32.2937 53.0052 33.827 54.088C32.8817 55.1422 32.2901 56.5149 32.2901 58.0326C32.2901 61.3222 34.9868 63.9979 38.3023 63.9979H48.1946C50.3051 63.9979 52.2876 62.8793 53.3663 61.077C53.8118 60.3343 53.5647 59.3732 52.8161 58.9311C52.0657 58.4926 51.097 58.7342 50.6533 59.477C50.1392 60.3343 49.1958 60.8658 48.1946 60.8658H38.3023C36.7275 60.8658 35.4468 59.5951 35.4468 58.0326C35.4468 56.4702 36.7275 55.1995 38.3023 55.1995H50.0382C52.1487 55.1995 54.1329 54.0791 55.2098 52.2768C55.6553 51.5322 55.4082 50.5711 54.6596 50.1309C53.9038 49.6816 52.9387 49.934 52.4968 50.6767C51.9755 51.5484 51.0555 52.0674 50.0382 52.0674H37.2976C35.7228 52.0674 34.4421 50.7949 34.4421 49.2324C34.4421 47.6699 35.7228 46.3992 37.2976 46.3992H51.8925C54.003 46.3992 55.9855 45.2806 57.0642 43.4783C57.5097 42.7356 57.2626 41.7745 56.514 41.3324C55.7618 40.8921 54.7949 41.1355 54.3512 41.8783C53.8298 42.7481 52.9099 43.2671 51.8925 43.2671H36.8989C35.3241 43.2671 34.0434 41.9964 34.0434 40.434C34.0434 38.8715 35.3223 37.599 36.8989 37.599Z" fill="#EE9547"/>
</svg>
